<?xml version="1.0" standalone="no"?>
<!DOCTYPE svg PUBLIC "-//W3C//DTD SVG 20010904//EN"
 "http://www.w3.org/TR/2001/REC-SVG-20010904/DTD/svg10.dtd">
<svg version="1.0" xmlns="http://www.w3.org/2000/svg"
 width="2048.000000pt" height="2048.000000pt" viewBox="0 0 2048.000000 2048.000000"
 preserveAspectRatio="xMidYMid meet">

<g transform="translate(0.000000,2048.000000) scale(0.100000,-0.100000)"
fill="#000000" stroke="none">
<path d="M8114 17319 c-10 -11 -30 -19 -48 -19 -17 -1 -42 -7 -55 -14 -14 -8
-41 -11 -68 -8 -24 2 -116 -1 -205 -8 -160 -13 -162 -13 -189 -43 -16 -17 -34
-27 -42 -24 -27 10 -251 -19 -282 -36 -43 -25 -57 -32 -85 -47 -14 -7 -60 -15
-102 -17 -86 -4 -143 -23 -150 -51 -7 -24 -89 -52 -153 -52 -40 0 -47 -4 -64
-32 -22 -35 -58 -51 -173 -77 -81 -19 -117 -37 -160 -83 -14 -15 -35 -28 -46
-28 -20 0 -52 -36 -65 -72 -5 -13 -17 -18 -45 -18 -47 0 -70 -16 -80 -55 -7
-25 -16 -32 -50 -40 -50 -12 -59 -21 -64 -59 -3 -31 -16 -41 -60 -51 -20 -4
-28 -12 -28 -26 0 -32 -31 -77 -62 -90 -26 -10 -50 -43 -94 -126 -9 -17 -27
-36 -40 -42 -24 -11 -48 -53 -59 -103 -4 -19 -18 -34 -46 -48 -22 -12 -42 -29
-45 -38 -6 -18 -40 -88 -62 -129 -7 -12 -22 -28 -33 -33 -12 -7 -19 -21 -19
-39 0 -15 -12 -45 -26 -66 -14 -21 -28 -54 -31 -72 -4 -24 -14 -38 -34 -49
-22 -11 -29 -22 -29 -43 0 -15 -9 -36 -20 -46 -11 -10 -20 -31 -20 -47 0 -30
-35 -108 -48 -108 -11 0 -47 -81 -67 -150 -32 -114 -37 -125 -60 -145 -24 -21
-65 -121 -65 -159 0 -28 -35 -169 -49 -193 -5 -10 -19 -27 -30 -37 -12 -11
-21 -28 -21 -39 0 -22 -17 -81 -31 -109 -5 -10 -9 -32 -9 -48 0 -33 -25 -90
-39 -90 -15 0 -59 -114 -65 -170 -10 -88 -42 -178 -77 -222 -21 -26 -35 -77
-46 -168 -3 -25 -9 -49 -14 -54 -5 -6 -9 -22 -9 -38 0 -15 -4 -37 -9 -50 -5
-13 -15 -43 -22 -68 -7 -25 -18 -52 -25 -60 -19 -23 -54 -121 -54 -151 0 -15
-8 -37 -19 -50 -10 -13 -21 -44 -24 -69 -13 -100 -21 -126 -43 -147 -16 -15
-24 -33 -24 -56 0 -19 -9 -46 -20 -60 -12 -15 -20 -40 -20 -64 0 -21 -7 -70
-16 -108 -9 -39 -18 -87 -21 -107 -3 -20 -14 -44 -24 -54 -10 -9 -19 -23 -19
-31 0 -8 -11 -29 -24 -46 -18 -25 -26 -54 -35 -132 -24 -212 -40 -275 -78
-311 -17 -15 -30 -42 -35 -72 -18 -92 -29 -168 -36 -242 -8 -84 -24 -120 -52
-120 -24 0 -40 -28 -40 -69 0 -16 -4 -33 -10 -36 -16 -10 -12 -98 6 -123 9
-13 27 -35 41 -50 13 -15 31 -34 39 -43 8 -9 36 -19 62 -23 134 -18 140 -20
167 -56 25 -34 63 -51 162 -69 47 -9 73 -26 73 -49 0 -24 32 -41 77 -42 23 0
54 -5 70 -12 15 -6 60 -15 98 -19 147 -17 149 -18 170 -57 18 -33 26 -38 70
-44 51 -7 115 -19 193 -36 25 -6 50 -19 58 -31 30 -42 48 -47 279 -71 73 -8
113 -17 146 -35 26 -14 56 -25 67 -25 11 0 27 -11 36 -25 13 -20 25 -25 61
-25 27 0 57 -8 77 -20 27 -16 51 -20 125 -20 50 0 94 -4 97 -9 3 -5 29 -11 58
-14 113 -13 117 -15 146 -63 4 -7 40 -15 81 -18 41 -4 79 -10 85 -14 6 -3 46
-7 88 -7 87 0 83 5 -24 34 -42 11 -86 25 -97 30 -11 6 -31 11 -44 11 -14 0
-27 7 -31 15 -3 9 -18 15 -37 15 -17 0 -43 6 -57 13 -57 29 -99 46 -140 58
-23 7 -47 18 -53 26 -6 7 -21 13 -32 13 -11 0 -28 6 -36 13 -9 7 -35 19 -59
27 -23 7 -47 19 -53 27 -6 7 -22 13 -34 13 -12 0 -28 7 -35 15 -7 8 -18 15
-24 15 -26 0 -285 140 -306 165 -7 8 -16 15 -21 15 -15 0 -98 60 -118 85 -10
14 -23 25 -28 25 -5 0 -24 16 -43 35 -19 19 -39 35 -46 35 -13 0 -244 254
-244 269 0 6 -7 11 -16 11 -10 0 -14 6 -11 14 3 8 -3 22 -14 31 -18 17 -65 92
-103 164 -10 20 -22 43 -27 51 -5 8 -12 22 -16 30 -3 8 -17 40 -31 70 -14 30
-24 61 -23 68 1 8 -4 21 -12 30 -7 10 -19 37 -26 62 -7 25 -17 54 -21 65 -14
35 -44 179 -45 215 0 19 -5 42 -10 50 -5 8 -10 39 -11 70 -1 30 -9 112 -17
181 -12 110 -12 158 0 360 16 271 22 330 34 344 5 5 9 28 9 52 0 23 7 68 15
100 8 31 15 74 15 94 0 21 5 39 10 41 6 2 13 33 17 71 3 37 10 67 14 67 4 0
11 27 15 60 4 33 10 60 14 60 4 0 11 20 14 45 4 24 11 47 16 50 4 3 11 24 15
47 4 24 13 52 21 63 7 11 16 37 19 58 4 20 11 40 16 43 5 3 9 13 9 22 0 17 41
124 65 172 7 14 16 40 20 58 3 17 11 32 16 32 5 0 9 8 9 18 0 20 50 143 67
163 6 8 14 29 18 47 3 17 11 32 15 32 5 0 15 18 21 41 7 23 19 43 26 46 7 3
13 13 13 23 0 11 5 22 10 25 6 3 19 25 31 48 11 23 26 51 32 62 7 11 32 54 56
95 24 41 62 104 86 140 23 36 45 72 49 80 4 8 12 24 19 35 7 11 25 43 42 70
31 54 63 98 95 130 11 12 20 28 20 38 0 9 4 17 9 17 6 0 32 30 59 68 52 70 89
112 235 265 154 160 222 227 230 227 4 0 22 13 40 30 18 16 36 30 40 30 5 0
32 22 60 49 29 26 77 64 107 83 30 19 61 42 69 51 7 10 21 17 30 17 10 0 28
12 42 26 13 14 38 32 54 40 17 8 50 25 74 39 24 14 49 25 56 25 7 0 20 9 30
20 10 11 27 22 39 26 11 4 50 20 86 36 36 16 76 34 90 40 14 6 32 14 40 19 20
11 80 39 105 49 27 10 62 25 105 43 19 8 64 25 100 36 36 12 76 28 90 36 42
23 243 74 315 80 17 2 33 4 38 5 4 1 10 3 15 4 4 1 13 5 20 9 6 5 16 6 21 2 6
-3 61 3 123 14 174 30 287 44 308 38 11 -3 22 -2 25 2 7 12 658 4 755 -9 47
-6 130 -14 185 -17 55 -3 104 -9 110 -14 5 -5 34 -9 65 -9 31 0 60 -4 65 -9 6
-5 39 -12 75 -14 36 -3 110 -12 165 -21 55 -9 124 -19 153 -23 29 -3 55 -9 58
-14 3 -5 28 -9 55 -9 31 0 48 4 44 10 -3 6 -14 10 -24 10 -10 0 -23 14 -32 32
-11 25 -22 35 -49 40 -77 15 -96 20 -115 28 -11 4 -44 15 -73 24 -33 10 -62
26 -78 45 -18 22 -35 30 -72 34 -26 3 -69 10 -97 16 -27 6 -73 14 -100 19 -28
4 -62 16 -75 25 -13 9 -38 17 -54 17 -17 0 -37 9 -51 24 -19 20 -34 24 -126
31 -57 4 -108 10 -114 15 -15 11 -244 22 -561 25 -269 4 -283 3 -300 -16z"/>
<path d="M13042 16643 c-46 -32 -133 -45 -337 -49 -162 -3 -202 -7 -211 -19
-6 -8 -17 -16 -25 -16 -17 -1 132 -25 246 -39 44 -5 103 -14 130 -20 28 -6 84
-15 125 -20 41 -4 91 -13 110 -19 19 -6 52 -11 72 -11 20 0 39 -4 42 -9 3 -4
34 -12 68 -15 35 -4 68 -12 74 -17 6 -5 33 -12 60 -15 27 -4 54 -11 60 -15 6
-5 33 -12 60 -15 27 -4 54 -10 59 -14 6 -4 26 -11 45 -15 19 -4 40 -11 45 -15
6 -5 33 -11 60 -16 28 -4 59 -13 70 -19 11 -7 36 -16 55 -20 19 -3 46 -11 60
-17 14 -5 41 -17 60 -25 19 -8 56 -25 83 -39 26 -13 54 -24 62 -24 8 0 39 -12
68 -26 28 -15 68 -35 87 -44 19 -10 52 -27 73 -39 21 -12 46 -21 57 -21 11 0
20 -4 20 -9 0 -5 16 -15 35 -21 19 -6 35 -15 35 -19 0 -4 16 -13 35 -20 19 -7
35 -17 35 -22 0 -5 5 -9 11 -9 5 0 31 -16 56 -35 25 -19 50 -35 54 -35 4 0 19
-10 32 -22 13 -13 47 -41 75 -63 113 -88 622 -611 622 -639 0 -4 5 -12 10 -19
33 -39 127 -198 173 -292 16 -33 33 -67 38 -75 5 -8 14 -26 20 -40 10 -23 42
-89 66 -135 11 -20 29 -62 43 -100 5 -11 15 -36 23 -55 9 -19 20 -46 26 -60 6
-14 15 -32 20 -40 18 -29 51 -119 51 -137 0 -11 4 -23 8 -29 5 -5 14 -29 21
-54 13 -42 24 -76 66 -195 9 -27 21 -63 25 -80 43 -158 53 -191 60 -199 5 -5
6 -15 3 -22 -3 -8 2 -25 11 -39 9 -14 14 -30 11 -35 -3 -5 1 -20 10 -34 10
-15 14 -33 10 -49 -4 -14 -1 -35 6 -48 6 -13 13 -39 14 -59 2 -19 8 -55 13
-80 6 -25 15 -72 22 -105 7 -33 16 -80 21 -105 13 -61 26 -125 38 -189 6 -29
12 -55 14 -57 10 -10 5 119 -5 136 -9 15 -10 35 -1 86 7 38 8 74 3 83 -4 9
-10 56 -13 104 -3 67 -9 92 -23 108 -16 18 -19 39 -21 128 -8 505 -14 592 -48
631 -17 20 -22 51 -35 210 -10 128 -12 136 -37 157 -29 24 -51 100 -52 179 -1
24 -7 47 -16 54 -8 7 -15 27 -15 45 0 18 -9 44 -20 58 -11 14 -20 34 -20 46 0
11 -9 35 -19 53 -10 18 -22 49 -26 68 -4 19 -18 45 -33 57 -27 23 -58 97 -70
167 -7 37 -17 48 -53 60 -11 3 -21 24 -27 58 -21 105 -28 123 -50 134 -35 17
-72 56 -72 75 0 18 -19 36 -53 54 -12 5 -24 24 -27 40 -11 50 -38 93 -61 97
-12 2 -25 10 -29 18 -29 64 -39 77 -73 93 -22 12 -39 28 -43 43 -8 31 -59 74
-88 74 -24 0 -46 34 -46 69 0 13 -10 20 -31 25 -18 3 -50 26 -82 60 -52 54
-89 78 -139 90 -18 4 -33 18 -44 41 -10 22 -23 35 -36 35 -10 0 -35 8 -56 19
-20 10 -50 21 -66 25 -16 4 -42 23 -59 42 -17 18 -38 34 -48 34 -21 0 -188 76
-210 96 -24 22 -148 61 -214 68 -33 4 -89 11 -125 17 -36 5 -83 12 -104 16
-22 3 -53 14 -70 24 -17 10 -41 19 -53 19 -12 0 -26 7 -31 15 -7 13 -59 18
-308 30 -374 18 -413 18 -442 -2z"/>
<path d="M14385 11368 c11 -7 56 -25 100 -41 67 -24 103 -30 220 -37 l140 -7
75 -75 c70 -69 99 -104 125 -148 6 -10 17 -26 25 -35 13 -15 12 -19 -5 -31
-10 -8 -33 -14 -49 -15 -17 0 -44 -2 -61 -3 -16 -1 -59 3 -95 11 -79 16 -87
16 -73 2 6 -6 9 -18 6 -26 -5 -14 33 -63 49 -63 4 0 17 -9 27 -19 11 -11 51
-30 90 -42 66 -21 75 -22 119 -9 30 8 85 12 150 11 56 -2 133 3 170 9 58 11
72 10 106 -4 21 -9 52 -16 68 -16 43 0 70 -16 144 -86 36 -34 44 -48 44 -78 0
-41 24 -106 39 -106 5 0 37 -22 70 -50 33 -27 64 -50 69 -50 5 0 14 -11 20
-25 6 -14 18 -25 27 -25 8 0 24 -6 35 -12 24 -15 40 1 40 42 0 35 -113 311
-148 363 -52 75 -114 124 -179 142 -32 8 -81 22 -109 30 -28 8 -61 15 -73 15
-13 0 -35 8 -49 19 -44 31 -102 61 -117 61 -25 0 -87 63 -138 140 -26 41 -55
79 -64 83 -37 21 -95 28 -348 42 -148 8 -299 19 -335 25 -143 22 -137 22 -115
8z"/>
<path d="M6730 10640 c0 -5 19 -10 43 -9 32 0 37 2 22 9 -28 12 -65 12 -65 0z"/>
<path d="M16942 10621 c13 -17 27 -30 32 -30 5 -1 19 -12 32 -26 13 -14 28
-25 35 -25 6 0 22 -11 35 -25 13 -14 30 -25 37 -25 8 0 17 -6 20 -13 3 -8 20
-22 39 -31 18 -10 56 -30 83 -46 28 -16 59 -34 70 -40 11 -6 34 -19 50 -29 17
-11 39 -20 50 -20 11 -1 31 -13 44 -27 13 -13 42 -34 65 -45 23 -11 64 -33 91
-49 28 -16 59 -34 70 -40 11 -6 34 -19 50 -29 17 -11 37 -20 46 -20 9 -1 19
-8 23 -16 3 -8 14 -15 25 -15 10 0 21 -7 25 -15 3 -8 16 -15 28 -15 13 -1 50
-16 83 -35 33 -19 78 -44 100 -55 22 -11 54 -29 70 -40 17 -10 49 -29 73 -41
23 -13 50 -31 59 -41 9 -10 21 -18 26 -18 5 0 38 -25 72 -55 35 -30 66 -55 70
-55 11 0 72 -49 126 -102 27 -27 55 -48 62 -49 18 -1 231 -243 235 -266 2 -11
19 -35 38 -53 18 -19 34 -41 34 -50 0 -9 11 -27 25 -40 14 -13 34 -44 46 -69
11 -25 34 -72 50 -104 16 -32 29 -67 29 -76 0 -10 7 -24 15 -31 9 -7 14 -18
12 -24 -3 -6 2 -18 9 -26 24 -28 61 -182 72 -300 11 -127 3 -459 -14 -530 -8
-36 -18 -85 -22 -110 -4 -25 -11 -51 -15 -57 -5 -7 -15 -39 -23 -70 -16 -64
-15 -61 -106 -248 -34 -71 -69 -134 -76 -138 -7 -5 -18 -18 -23 -30 -16 -36
-35 -67 -56 -90 -10 -12 -25 -35 -33 -51 -8 -16 -32 -48 -52 -71 -21 -24 -38
-47 -38 -52 0 -5 -12 -20 -27 -33 -16 -13 -118 -106 -228 -205 -110 -100 -211
-188 -225 -195 -14 -7 -43 -28 -66 -47 -23 -18 -48 -33 -56 -33 -8 0 -29 -16
-48 -35 -19 -19 -41 -35 -50 -35 -9 0 -27 -11 -40 -25 -13 -14 -29 -25 -35
-25 -7 0 -24 -9 -38 -20 -14 -11 -32 -20 -40 -20 -7 0 -22 -9 -32 -20 -10 -11
-24 -20 -32 -20 -8 0 -26 -8 -41 -18 -59 -39 -239 -132 -255 -132 -6 0 -20 -8
-31 -18 -23 -21 -236 -112 -261 -112 -8 0 -23 -4 -33 -10 -27 -15 -76 -33 -86
-31 -4 1 -18 -4 -30 -12 -11 -8 -68 -29 -126 -47 -58 -18 -118 -39 -135 -46
-16 -7 -43 -15 -60 -19 -16 -4 -43 -13 -60 -20 -16 -7 -43 -16 -60 -20 -16 -4
-44 -13 -62 -21 -17 -8 -46 -17 -65 -20 -18 -4 -40 -13 -49 -21 -9 -7 -24 -11
-33 -7 -9 4 -24 0 -34 -8 -9 -8 -37 -20 -62 -27 -25 -7 -56 -17 -70 -21 -14
-5 -47 -14 -75 -21 -27 -6 -54 -16 -59 -20 -6 -5 -22 -9 -37 -9 -15 0 -40 -7
-55 -15 -16 -8 -46 -18 -67 -21 -20 -4 -40 -11 -43 -15 -3 -5 -18 -9 -34 -9
-16 0 -31 -4 -34 -9 -3 -5 -16 -11 -28 -14 -13 -3 -39 -10 -58 -15 -117 -33
-154 -42 -175 -42 -13 0 -26 -4 -29 -9 -3 -5 -22 -12 -41 -15 -19 -3 -51 -9
-70 -12 -19 -3 -38 -10 -41 -15 -3 -5 -15 -9 -26 -9 -23 0 -81 -17 -110 -31
-10 -5 -25 -9 -35 -9 -9 0 -30 -4 -47 -9 -17 -5 -51 -15 -76 -21 -25 -7 -56
-17 -70 -23 -14 -6 -31 -9 -38 -8 -8 1 -22 -5 -33 -15 -10 -9 -25 -14 -35 -10
-9 3 -23 1 -30 -5 -8 -6 -14 -8 -14 -4 0 4 -7 2 -15 -5 -8 -6 -19 -9 -24 -5
-6 3 -22 -1 -35 -10 -15 -10 -33 -14 -46 -10 -13 4 -31 0 -45 -9 -13 -9 -31
-13 -40 -10 -8 4 -26 -1 -40 -10 -14 -9 -30 -14 -35 -11 -5 3 -20 -1 -34 -10
-13 -9 -30 -15 -38 -14 -7 1 -26 -3 -42 -10 -15 -6 -33 -11 -40 -9 -6 1 -22
-3 -36 -9 -30 -12 -66 -23 -180 -53 -47 -12 -94 -26 -105 -30 -11 -5 -31 -11
-45 -13 -14 -3 -51 -12 -83 -21 -32 -9 -69 -16 -82 -16 -13 0 -27 -4 -30 -10
-3 -5 -19 -10 -35 -10 -16 0 -31 -4 -34 -9 -3 -5 -20 -11 -38 -14 -78 -14
-104 -20 -114 -28 -5 -4 -37 -16 -70 -24 -32 -9 -72 -20 -89 -25 -123 -34
-148 -40 -166 -40 -10 0 -27 -4 -37 -9 -22 -11 -106 -31 -132 -31 -11 0 -28
-4 -38 -9 -22 -11 -106 -31 -132 -31 -11 0 -28 -4 -38 -9 -16 -8 -102 -31
-197 -51 -22 -5 -60 -14 -85 -20 -25 -6 -65 -15 -90 -20 -25 -5 -63 -14 -85
-20 -22 -6 -74 -17 -115 -24 -41 -8 -93 -18 -115 -24 -72 -19 -150 -34 -160
-31 -5 2 -21 -3 -33 -10 -13 -7 -35 -10 -49 -6 -16 4 -34 0 -49 -10 -14 -9
-29 -13 -34 -10 -5 3 -20 -1 -34 -10 -15 -10 -33 -14 -49 -10 -14 4 -36 1 -48
-6 -13 -7 -37 -13 -54 -14 -27 -2 -183 -28 -245 -41 -14 -3 -43 -9 -65 -14
-22 -4 -67 -13 -100 -20 -33 -7 -80 -16 -105 -21 -25 -6 -67 -15 -95 -20 -27
-6 -70 -12 -95 -13 -25 -1 -55 -8 -67 -14 -13 -7 -34 -10 -47 -6 -13 3 -34 0
-47 -6 -12 -7 -43 -14 -68 -15 -48 -3 -74 -7 -316 -49 -82 -15 -156 -24 -163
-21 -8 3 -21 0 -29 -7 -8 -6 -40 -13 -71 -14 -31 -1 -91 -6 -132 -12 -160 -23
-257 -34 -305 -37 -27 -2 -84 -8 -125 -13 -163 -23 -252 -32 -260 -27 -5 3
-12 1 -15 -5 -4 -6 -15 -8 -26 -5 -11 4 -59 2 -107 -4 -48 -6 -121 -13 -162
-16 -41 -2 -75 -4 -75 -5 0 -1 -111 -9 -218 -14 -48 -3 -92 -8 -97 -11 -6 -3
-15 -3 -20 0 -5 3 -14 4 -19 1 -8 -6 -138 -14 -331 -21 -47 -2 -132 -6 -190
-9 -58 -3 -166 -8 -240 -11 -74 -2 -135 -5 -135 -6 0 -1 -234 -7 -548 -13
-130 -3 -242 -8 -247 -11 -6 -3 -14 -3 -20 0 -11 7 -443 10 -456 3 -5 -2 -115
1 -244 8 -129 7 -257 11 -285 8 -51 -5 -486 18 -675 36 -141 13 -357 30 -455
37 -44 2 -84 9 -89 14 -6 5 -49 9 -96 9 -47 0 -90 4 -96 9 -5 5 -34 12 -64 15
-122 12 -349 44 -400 56 -86 20 -140 30 -202 36 -38 3 -68 10 -68 15 0 5 -12
9 -27 9 -35 0 -223 44 -324 75 -26 8 -57 15 -71 15 -13 0 -32 6 -43 14 -11 7
-42 16 -69 20 -27 3 -54 10 -60 15 -6 5 -29 13 -51 17 -22 4 -42 10 -45 13 -3
4 -25 12 -50 18 -83 20 -232 77 -333 129 -26 13 -54 24 -62 24 -8 0 -36 12
-62 28 -26 15 -61 33 -78 41 -39 18 -90 44 -156 81 -30 16 -72 38 -94 50 -22
11 -52 28 -67 38 -14 9 -50 32 -80 50 -137 84 -328 219 -328 232 0 5 -10 12
-22 16 -12 3 -36 21 -53 38 -36 36 -113 99 -131 106 -20 9 -264 281 -264 296
0 7 -20 36 -45 64 -25 28 -45 57 -45 64 0 7 -9 21 -20 31 -11 10 -20 26 -20
35 0 9 -12 27 -26 41 -14 13 -32 38 -40 54 -8 17 -25 48 -39 70 -13 22 -27 47
-30 55 -4 8 -11 22 -16 30 -9 14 -39 78 -62 130 -6 14 -18 33 -26 43 -8 9 -11
20 -8 24 4 3 1 13 -6 22 -7 9 -19 36 -26 61 -7 25 -17 54 -21 65 -23 56 -38
111 -50 175 -5 25 -13 63 -19 85 -16 59 -38 192 -42 255 -12 196 9 571 32 586
5 3 9 24 9 47 0 24 6 51 14 62 7 11 16 42 20 69 3 27 10 54 14 60 5 6 14 31
21 56 7 25 19 58 27 73 8 16 14 37 14 47 0 9 7 23 15 30 8 7 15 19 15 27 0 13
54 110 102 182 10 14 22 35 27 46 5 11 18 29 30 39 11 11 21 23 21 28 0 12 53
79 103 129 20 21 37 43 37 48 0 13 318 301 332 301 6 0 26 11 45 26 18 14 33
22 33 18 0 -4 10 1 22 12 28 23 69 43 166 80 40 15 75 31 78 35 2 5 11 6 19 2
9 -3 26 2 40 11 14 9 30 14 36 10 6 -3 19 2 29 11 11 10 28 15 39 12 11 -3 26
2 32 10 7 8 24 13 38 12 14 -2 37 3 49 10 13 7 34 10 46 7 13 -3 26 -2 30 2 4
4 12 8 17 8 5 1 10 2 12 3 9 7 190 14 327 12 121 -1 187 -7 245 -21 44 -10
106 -21 137 -25 32 -4 58 -11 58 -16 0 -5 17 -9 38 -9 20 0 46 -7 56 -15 11
-8 34 -15 52 -15 17 0 57 -11 88 -25 31 -14 60 -25 65 -25 18 0 30 61 41 210
6 85 15 175 20 200 5 25 14 72 21 105 13 68 33 112 60 134 17 14 21 39 30 191
5 96 14 182 18 190 5 9 12 65 16 125 7 108 6 110 -18 133 -39 36 -104 23 -168
-34 -42 -37 -56 -44 -92 -44 -38 -1 -45 -5 -75 -45 -23 -32 -40 -45 -57 -45
-13 0 -27 -4 -30 -10 -3 -5 -20 -10 -36 -10 -36 0 -75 -24 -93 -58 -13 -25
-69 -45 -159 -56 -16 -2 -29 -6 -30 -8 -37 -71 -41 -73 -162 -85 -70 -7 -81
-11 -91 -32 -17 -33 -30 -39 -104 -46 -84 -9 -124 -22 -182 -62 -41 -28 -63
-35 -150 -46 -97 -12 -104 -14 -116 -41 -17 -34 -15 -33 -136 -45 -85 -9 -104
-14 -135 -38 -64 -51 -90 -63 -129 -63 -21 0 -42 -4 -47 -9 -6 -5 -26 -14 -45
-20 -21 -7 -44 -25 -59 -46 -20 -30 -29 -35 -64 -35 -33 0 -45 -6 -71 -36 -29
-34 -74 -57 -141 -73 -20 -4 -35 -17 -47 -41 -20 -39 -42 -54 -69 -47 -27 7
-77 -37 -81 -70 -3 -23 -10 -29 -48 -38 -40 -10 -47 -15 -59 -51 -12 -36 -20
-42 -58 -52 -31 -9 -43 -17 -43 -31 0 -10 -11 -35 -25 -55 -14 -20 -25 -41
-25 -46 0 -5 -16 -21 -36 -36 -38 -30 -64 -71 -64 -103 0 -13 -15 -30 -40 -46
-22 -14 -40 -32 -40 -40 0 -9 -5 -24 -10 -35 -6 -11 -14 -29 -20 -40 -5 -11
-10 -34 -10 -52 0 -25 -6 -37 -28 -49 -30 -17 -59 -81 -74 -164 -5 -27 -13
-72 -18 -100 -5 -27 -14 -70 -20 -95 -6 -25 -15 -64 -19 -86 -4 -23 -17 -58
-29 -78 -12 -21 -22 -53 -22 -72 0 -19 -6 -50 -14 -69 -10 -22 -14 -72 -14
-147 0 -240 8 -341 29 -354 5 -3 9 -17 9 -32 0 -15 7 -47 15 -71 9 -24 15 -62
15 -85 -1 -22 0 -109 2 -192 l3 -151 36 -34 36 -34 11 -151 c11 -136 15 -158
42 -212 17 -34 30 -65 29 -69 -4 -17 14 -94 22 -99 5 -3 9 -18 9 -35 0 -27 24
-62 49 -70 6 -2 15 -30 21 -61 5 -31 14 -66 19 -77 6 -11 11 -30 11 -43 0 -16
10 -28 33 -39 19 -9 35 -27 40 -42 4 -15 10 -39 15 -53 4 -15 15 -31 25 -35 9
-5 25 -13 34 -17 20 -10 30 -27 38 -65 4 -19 17 -33 41 -44 22 -11 37 -26 41
-43 7 -32 48 -77 77 -84 13 -3 29 -22 41 -48 15 -33 28 -46 55 -54 26 -8 40
-22 54 -50 22 -46 32 -54 67 -54 30 0 42 -12 56 -55 7 -21 18 -32 39 -36 58
-14 123 -55 154 -97 22 -30 37 -42 55 -42 26 0 61 -21 123 -72 18 -16 39 -28
48 -28 8 0 17 -7 20 -15 4 -8 18 -15 33 -15 36 0 118 -45 160 -86 23 -24 42
-34 64 -34 49 0 147 -40 147 -60 0 -10 6 -22 13 -28 12 -9 26 -12 147 -31 114
-18 181 -41 190 -66 6 -15 28 -27 82 -43 41 -12 83 -22 94 -22 54 0 210 -42
226 -60 16 -20 55 -30 188 -51 162 -25 200 -30 270 -37 45 -4 85 -14 100 -25
13 -9 38 -17 54 -17 16 0 37 -6 45 -13 36 -31 198 -54 491 -72 124 -7 245 -18
270 -24 25 -5 75 -10 112 -11 37 0 69 -4 72 -9 9 -14 66 -21 271 -35 105 -8
208 -19 230 -25 22 -6 69 -11 105 -11 37 0 70 -4 75 -9 12 -10 451 -35 466
-26 12 8 582 17 794 13 156 -3 319 -1 358 3 12 1 121 -3 242 -10 121 -7 238
-12 260 -11 22 1 96 1 165 0 69 -1 163 4 210 10 209 27 301 33 545 37 375 6
382 6 587 2 l186 -4 27 25 26 25 367 0 c353 1 369 2 407 22 58 31 96 43 130
42 17 0 104 3 195 6 312 13 292 10 317 41 l22 29 168 3 c92 2 188 4 212 3 24
-1 50 4 57 10 8 6 25 8 38 5 19 -5 29 0 45 23 15 20 32 30 63 35 24 4 54 10
68 13 14 3 72 5 130 4 108 -1 281 26 303 48 6 6 27 11 47 11 19 0 51 5 70 10
55 17 90 23 155 27 191 13 169 9 345 56 52 14 135 28 183 32 71 6 89 11 98 26
6 12 21 19 40 19 16 0 43 7 59 15 17 9 71 18 127 21 95 6 156 11 179 13 7 0
14 12 18 25 5 19 14 24 58 30 29 4 60 8 68 8 8 0 80 4 160 10 138 9 146 11
167 35 24 30 65 39 232 53 76 6 110 13 130 27 31 23 136 50 247 63 106 13 123
18 162 52 33 29 41 30 182 34 25 0 63 6 85 12 22 6 66 14 97 17 31 4 59 13 61
20 3 7 33 15 68 19 34 3 70 12 78 20 9 7 51 17 93 21 54 5 85 13 102 26 36 28
115 49 231 61 79 8 103 15 113 29 23 34 68 48 178 59 60 5 119 10 132 10 15 0
26 8 32 24 14 37 33 43 180 56 128 12 136 14 160 40 28 31 42 35 209 53 109
11 115 13 123 37 7 23 17 28 78 38 39 7 81 12 95 12 39 0 119 30 135 51 11 13
40 24 95 33 87 15 124 26 200 61 53 24 119 46 199 66 26 7 62 23 78 37 29 25
91 43 158 46 35 2 80 21 80 34 0 15 107 60 152 65 31 3 59 14 85 34 44 33 109
63 138 63 29 -1 108 15 123 24 7 4 12 13 12 19 0 16 92 67 122 67 18 0 28 9
39 32 12 28 21 34 58 40 33 6 51 16 72 41 28 34 134 97 163 97 9 0 26 16 37
35 21 35 28 39 137 65 32 8 48 19 63 44 10 18 30 39 44 46 14 7 25 17 25 21 0
14 90 68 137 82 39 11 48 19 57 47 8 26 18 36 41 40 51 11 75 29 75 56 0 25
17 37 72 48 20 5 30 14 34 34 10 40 43 72 76 72 22 0 29 5 34 28 12 57 23 72
52 72 33 0 57 23 67 63 6 21 20 34 54 50 37 18 51 32 70 71 13 28 47 74 77
102 30 29 54 59 54 66 0 23 30 58 49 58 26 0 46 28 62 84 9 32 29 64 61 98 33
33 48 58 48 76 1 52 46 164 72 178 33 17 49 75 59 209 4 61 12 142 17 180 9
76 7 371 -4 448 -5 38 -12 51 -30 59 -16 8 -24 20 -24 37 -1 14 -7 37 -15 51
-8 14 -14 43 -15 66 0 41 -16 64 -52 77 -10 4 -18 14 -18 24 0 10 -9 47 -21
83 -19 60 -25 68 -61 86 -35 16 -43 27 -57 69 -12 38 -23 53 -46 64 -36 17
-45 28 -45 58 0 26 -35 53 -67 53 -30 0 -63 34 -63 65 0 19 -9 29 -44 44 -44
20 -56 36 -56 72 0 13 -18 27 -62 48 -35 16 -71 32 -80 35 -10 3 -24 21 -32
40 -14 35 -27 42 -86 48 -18 2 -30 14 -45 46 -16 34 -24 42 -47 42 -15 0 -29
4 -32 8 -3 4 -30 21 -61 37 -31 15 -60 38 -65 49 -5 15 -23 25 -66 35 -32 7
-68 19 -79 27 -10 8 -29 14 -41 14 -15 0 -29 12 -43 35 -17 30 -26 35 -56 35
-21 0 -38 6 -41 14 -3 7 -26 17 -52 20 -26 4 -56 13 -66 21 -11 8 -28 15 -37
15 -9 0 -29 14 -42 30 -16 19 -35 30 -51 30 -14 0 -27 4 -30 8 -3 5 -31 14
-63 21 -76 17 -103 31 -114 57 -5 14 -20 25 -41 29 -18 3 -42 10 -53 15 -11 4
-54 13 -96 19 -81 11 -160 42 -199 79 -18 17 -36 22 -76 22 -29 0 -56 5 -59
10 -3 6 -30 10 -60 10 -30 0 -64 4 -77 9 -13 6 -40 13 -61 16 -21 3 -46 14
-56 24 -32 32 -98 51 -176 51 -40 0 -77 5 -80 10 -3 6 -29 10 -56 10 l-51 0
24 -29z"/>
<path d="M6878 10613 c7 -3 16 -2 19 1 4 3 -2 6 -13 5 -11 0 -14 -3 -6 -6z"/>
<path d="M6910 10590 c0 -3 11 -16 23 -28 21 -20 34 -22 115 -21 51 1 89 5 86
10 -3 5 -25 9 -49 9 -24 0 -50 6 -57 14 -14 14 -118 28 -118 16z"/>
<path d="M7218 10523 c6 -2 18 -2 25 0 6 3 1 5 -13 5 -14 0 -19 -2 -12 -5z"/>
<path d="M12770 7315 l-25 -14 25 -1 c37 0 71 11 64 21 -8 13 -35 10 -64 -6z"/>
<path d="M12038 7263 c17 -2 47 -2 65 0 17 2 3 4 -33 4 -36 0 -50 -2 -32 -4z"/>
<path d="M11793 7253 c26 -2 67 -2 90 0 23 2 2 3 -48 3 -49 0 -68 -1 -42 -3z"/>
</g>
</svg>
